<svg width="100%" height="100%" viewBox="0 0 360 326" fill="none" xmlns="http://www.w3.org/2000/svg">
<path d="M27.9075 157.569C39.5128 189.069 28 216.613 60.5 240.968C98 269.069 168.244 233.532 190.216 229.15C212.188 224.768 254.135 224.281 280.102 252.521C306.069 280.762 304.071 292.447 321.549 309.489C339.027 326.53 360 325.069 360 325.069V0.5H0L5.67283e-05 135.069C5.67283e-05 135.069 18.697 132.569 27.9075 157.569Z" fill="#028090"/>
<path d="M0 94.5411C87.4073 88.0411 58.6096 141.51 116.146 179.358C148.603 200.708 199.93 167.672 199.93 167.672C255.15 143.327 282.621 193.96 305.093 209.541C327.564 225.122 360 209.541 360 209.541V1H0V94.5411Z" fill="#00A896"/>
<path d="M262 116.014V194H98V115.983L109.338 96.5353L121 116.014V136.566V141.566H126H150H155V136.566V136.288L179.619 129.652L205 136.314V136.566V141.566H210H234H239V136.566V115.983L250.338 96.5354L262 116.014ZM153.521 136.687L153.524 136.686L153.521 136.687ZM179.908 129.574C179.907 129.574 179.907 129.575 179.906 129.575L179.908 129.574ZM262.284 116.489C262.283 116.487 262.282 116.486 262.281 116.484L262.284 116.489Z" stroke="#028090" stroke-width="10"/>
<path d="M127.557 155.65H134.307L127.607 188H119.557L112.857 155.65H119.657L123.607 179.25L127.557 155.65ZM144.749 182.2H152.499V188H137.749V155.65H152.499V161.35H144.749V168.95H151.999V174.45H144.749V182.2ZM163.548 174.75V188H156.548V155.65H168.998C173.131 155.65 175.198 157.85 175.198 162.25V166C175.198 168.667 174.248 170.367 172.348 171.1C174.015 171.7 174.848 173.067 174.848 175.2V188H167.848V175.75C167.848 175.083 167.531 174.75 166.898 174.75H163.548ZM163.548 160.4V169.85H167.248C167.515 169.85 167.731 169.75 167.898 169.55C168.098 169.35 168.198 169.117 168.198 168.85V161.4C168.198 161.133 168.098 160.9 167.898 160.7C167.731 160.5 167.515 160.4 167.248 160.4H163.548ZM198.742 161.75V181.9C198.742 186.3 196.676 188.5 192.542 188.5H185.892C181.759 188.5 179.692 186.3 179.692 181.9V161.75C179.692 157.35 181.759 155.15 185.892 155.15H192.542C196.676 155.15 198.742 157.35 198.742 161.75ZM191.742 182.7V160.9C191.742 160.633 191.642 160.4 191.442 160.2C191.276 160 191.059 159.9 190.792 159.9H187.642C187.376 159.9 187.142 160 186.942 160.2C186.776 160.4 186.692 160.633 186.692 160.9V182.7C186.692 182.967 186.776 183.2 186.942 183.4C187.142 183.6 187.376 183.7 187.642 183.7H190.792C191.059 183.7 191.276 183.6 191.442 183.4C191.642 183.2 191.742 182.967 191.742 182.7ZM216.511 155.65C220.644 155.65 222.711 157.85 222.711 162.25V168.7C222.711 173.1 220.644 175.3 216.511 175.3H210.861V188H203.861V155.65H216.511ZM215.711 169.5V161.45C215.711 161.183 215.611 160.95 215.411 160.75C215.244 160.55 215.028 160.45 214.761 160.45H210.861V170.5H214.761C215.028 170.5 215.244 170.4 215.411 170.2C215.611 170 215.711 169.767 215.711 169.5ZM239.076 155.15C243.209 155.15 245.276 157.35 245.276 161.75V188H238.276V177.15H233.226V188H226.226V161.75C226.226 157.35 228.292 155.15 232.426 155.15H239.076ZM233.226 171.75H238.276V160.9C238.276 160.633 238.176 160.4 237.976 160.2C237.809 160 237.592 159.9 237.326 159.9H234.176C233.909 159.9 233.676 160 233.476 160.2C233.309 160.4 233.226 160.633 233.226 160.9V171.75Z" fill="white"/>
<rect width="15.5" height="15.5" transform="translate(228 158)" fill="white"/>
<path d="M241.746 163.345L237.902 162.786L236.184 159.303C236.138 159.208 236.06 159.131 235.965 159.084C235.726 158.966 235.435 159.064 235.316 159.303L233.598 162.786L229.754 163.345C229.648 163.36 229.552 163.41 229.477 163.486C229.388 163.578 229.338 163.702 229.34 163.83C229.342 163.959 229.394 164.081 229.486 164.171L232.267 166.882L231.61 170.71C231.595 170.799 231.605 170.891 231.639 170.975C231.673 171.058 231.729 171.131 231.802 171.184C231.876 171.237 231.962 171.269 232.052 171.275C232.142 171.282 232.233 171.263 232.312 171.22L235.75 169.413L239.188 171.22C239.281 171.27 239.39 171.287 239.495 171.269C239.758 171.223 239.935 170.974 239.89 170.71L239.233 166.882L242.014 164.171C242.089 164.097 242.139 164 242.154 163.894C242.195 163.629 242.011 163.384 241.746 163.345V163.345Z" fill="#F07167"/>
</svg>
