<svg color="#000000" fill="currentColor" xmlns="http://www.w3.org/2000/svg"  viewBox="0 0 30 30" width="30px" height="30px"><path fill="none" stroke="currentColor" stroke-linecap="round" stroke-linejoin="round" stroke-miterlimit="10" stroke-width="2" d="M28,13c0-1.332-1.96-9-10.727-9C8.718,4,2,11.028,2,15l0,4.661C2,21.605,3.536,23,5.435,23s2.953-1,4.566-1c2.733,0,5.039,4,10.008,4c4.424,0,7.99-3.649,7.99-8.177V13z"/><path d="M20.01,21c-4.969,0-7.275-4-10.008-4c-1.614,0-2.668,1-4.567,1C3.594,18,3,16.122,3,15.391c-0.002,0.055-1,4.27-1,4.27C2,21.605,3.536,23,5.435,23s2.953-1,4.567-1c2.733,0,5.039,4,10.008,4c4.424,0,7.99-3.649,7.99-8.177c0,0-0.112-3.071-0.997-3.823C27.003,18.896,24.399,21,20.01,21z"/><path d="M19.369 12.979c-.224.48-.003 1.05.485 1.254l3.695 1.546c.465.195 1.013-.04 1.164-.521.18-.572.271-1.185.261-1.821 0-2.152-1.179-3.768-2.774-4.843-.312-.211-.738-.106-.897.235L19.369 12.979zM14.309 9.474c.178.097.309.261.364.456l.561 1.993c.076.27.271.49.529.598l.999.418c.454.19.978-.012 1.186-.459l1.99-4.269c.152-.326-.012-.723-.357-.824C18.699 7.131 17.811 7 17 7c-1.364 0-2.724.303-4.016.788-.409.153-.448.719-.065.928L14.309 9.474zM16.896 14.62c-.414-.173-.845.208-.724.64l.834 2.966c.782.412 1.615.697 2.593.697 1.152 0 2.16-.31 2.984-.84.432-.278.387-.922-.087-1.12L16.896 14.62zM13.425 11.034c-.071-.253-.241-.466-.471-.591l-1.946-1.061c-.39-.212-.87-.206-1.243.034-2.815 1.814-4.79 4.155-4.79 5.187C4.974 15.31 5.545 16 6.235 16c1.711 0 2.687-1 3.757-1 1.652 0 2.915.582 4.052 1.298.369.233.83-.112.712-.533L13.425 11.034z"/></svg>