<svg color="#000000" fill="currentColor" xmlns="http://www.w3.org/2000/svg"  viewBox="0 0 24 24" width="30px" height="30px"><path d="M17.19,2.23c-0.39-0.33-0.98-0.3-1.35,0.06L2.29,15.8C2.11,15.99,2,16.25,2,16.51c0,0.27,0.1,0.52,0.29,0.71C4.76,19.69,7.63,21,10.58,21c2.67,0,5.26-1.12,7.3-3.16c2.11-2.11,3.24-5.03,3.11-8C20.86,6.88,19.51,4.18,17.19,2.23z M10.22,17.85c-0.54,0.13-1.08-0.2-1.21-0.74c-0.13-0.54,0.31-2.98,0.31-2.98s1.51,1.97,1.64,2.51C11.09,17.18,10.76,17.72,10.22,17.85z M15.71,15.71c-0.39,0.39-1.03,0.39-1.42,0C13.9,15.32,13,13,13,13s2.32,0.9,2.71,1.29C16.1,14.68,16.1,15.32,15.71,15.71z M17.95,10.25c-0.13,0.54-0.67,0.87-1.21,0.74c-0.53-0.13-2.51-1.64-2.51-1.64s2.45-0.44,2.98-0.31C17.75,9.17,18.08,9.71,17.95,10.25z"/></svg>