<svg color="#000000" fill="currentColor" xmlns="http://www.w3.org/2000/svg"  viewBox="0 0 30 30" width="30px" height="30px"><path d="M15,8C8.925,8,4,12.925,4,19v4c0,1.105,0.895,2,2,2h18c1.105,0,2-0.895,2-2v-4C26,12.925,21.075,8,15,8z M8.001,21.998c-0.552,0-0.999-0.447-0.999-0.999C7.002,20.447,7.449,20,8.001,20C8.553,20,9,20.447,9,20.999C9,21.551,8.553,21.998,8.001,21.998z M10.001,18.998c-0.552,0-0.999-0.447-0.999-0.999c0-0.552,0.447-0.999,0.999-0.999C10.553,17,11,17.447,11,17.999C11,18.551,10.553,18.998,10.001,18.998z M12.001,21.998c-0.552,0-0.999-0.447-0.999-0.999c0-0.552,0.447-0.999,0.999-0.999C12.553,20,13,20.447,13,20.999C13,21.551,12.553,21.998,12.001,21.998z"/><path d="M29.125,14.826c-0.499-0.568-0.625-1.308-0.437-2.047c0.062-0.17,0.062-0.455,0.062-0.682c0-1.876-1.249-3.411-3.247-3.866c-0.687-0.171-1.186-0.568-1.499-1.137c-0.687-1.422-2.186-2.388-3.996-2.388c-0.812,0-1.561-0.284-2.123-0.74C17.072,3.341,16.074,3,15.012,3c-1.062,0-2.061,0.341-2.872,0.967c-0.562,0.455-1.311,0.74-2.123,0.74c-1.811,0-3.373,1.024-4.06,2.444c-0.25,0.511-0.749,0.91-1.311,1.024c-2.124,0.455-3.373,2.047-3.373,3.923c0,0.227,0,0.511,0.062,0.74c0.125,0.74,0,1.478-0.499,2.047c-0.687,0.852-1,1.933-0.75,3.127C0.692,19.429,2,20,2,20v-1C2,11.832,7.832,6,15,6s13,5.832,13,13v1c0,0,2-0.57,2-2.786C30,16.305,29.688,15.508,29.125,14.826z"/></svg>