<svg color="#000000" fill="currentColor" xmlns="http://www.w3.org/2000/svg"  viewBox="0 0 30 30" width="30px" height="30px"><path d="M10 23A2 2 0 1 0 10 27 2 2 0 1 0 10 23zM21 23A2 2 0 1 0 21 27 2 2 0 1 0 21 23z"/><path d="M20 3l-1 1v21h4c0-1.295-.437-3.319-.795-5.231C21.821 17.72 21.905 17 23 17s2-.895 2-2V8C25 5.239 22.761 3 20 3zM14 3c-.553 0-1 .447-1 1v5c0 .552-.448 1-1 1s-1-.448-1-1V4c0-.553-.447-1-1-1v22h2c0-2-.353-5.018-.572-8.009S15 14.658 15 10V4C15 3.447 14.553 3 14 3zM6 3c.553 0 1 .447 1 1v5c0 .552.448 1 1 1s1-.448 1-1V4c0-.553.447-1 1-1v22H8c0-2 .353-5.018.572-8.009S5 14.658 5 10V4C5 3.447 5.447 3 6 3z"/><path d="M20 3A1 1 0 1 0 20 5A1 1 0 1 0 20 3Z"/></svg>