<svg color="#000000" fill="currentColor" xmlns="http://www.w3.org/2000/svg"  viewBox="0 0 64 64" width="30px" height="30px" baseProfile="basic"><path d="M50.885,13.115c7.879,7.879,7.026,21.535-5.508,34.069c-9.648,9.648-20.974,5.09-26.266,1.273	c2.37-1.766,5.022-4.2,8.216-7.374c4.682,1.311,10.684,1.361,14.669-0.839c0.53-0.292,0.802-0.918,0.599-1.507	c-0.223-0.651-0.893-0.965-1.593-0.79c-3.523,0.88-6.786,0.749-10.282-0.297c1.806-1.853,3.777-3.905,5.944-6.167	c1.856,0.488,6.321,1.206,10.524-0.964c0.537-0.277,0.802-0.918,0.6-1.507c-0.223-0.651-0.875-0.86-1.593-0.79	c-2.691,0.262-4.944,0.349-6.517,0.116c2.202-2.296,4.59-4.78,7.195-7.465c0.452-0.466,0.452-1.221,0-1.699	c-0.469-0.496-1.247-0.513-1.748-0.049c-2.723,2.527-5.233,4.865-7.59,7.055c-0.905-3.385,0.073-5.602,0.247-6.366	c0.136-0.598-0.048-1.217-0.6-1.507c-0.609-0.32-1.364-0.086-1.683,0.524c-1.604,3.071-1.868,6.639-1.018,10.182	c-0.332,0.307-0.679,0.63-1.004,0.93c-1.945,1.919-3.716,3.657-5.369,5.261c-1.124-3.552-0.922-6.599,0.099-10.062	c0.16-0.543-0.048-1.217-0.6-1.507c-0.609-0.32-1.364-0.086-1.683,0.524c-1.675,3.206-2.626,8.584-1.297,14.372	c-6.8,6.383-11.159,9.613-15.552,10.425c-1.392,0.257-2.742-0.605-3.028-1.991c-0.286-1.386,0.732-2.983,1.991-3.028	c1.39-0.05,3.166-0.791,5.418-2.197c-3.388-6.543-4.016-15.742,3.358-23.116C29.407,6.031,43.006,5.237,50.885,13.115z"/></svg>