<svg color="#000000" fill="currentColor" xmlns="http://www.w3.org/2000/svg"  viewBox="0 0 30 30" width="30px" height="30px"><path d="M28.707,9.707l-3.95-3.95C23.632,4.632,22.106,4,20.515,4H19c0,0-0.671,4-4,4s-4-4-4-4H9.485C7.894,4,6.368,4.632,5.243,5.757l-3.95,3.95c-0.391,0.391-0.391,1.024,0,1.414l2.586,2.586c0.391,0.391,1.024,0.391,1.414,0L7,12v12c0,1.105,0.895,2,2,2h6h6c1.105,0,2-0.895,2-2l0-12l1.707,1.707c0.391,0.391,1.024,0.391,1.414,0l2.586-2.586C29.098,10.731,29.098,10.098,28.707,9.707z"/><path fill="none" stroke="currentColor" stroke-linecap="round" stroke-linejoin="round" stroke-miterlimit="10" stroke-width="2" d="M10 5L20 5"/></svg>